<svg width="80" height="80" viewBox="0 0 80 80" fill="none" xmlns="http://www.w3.org/2000/svg">
<g clip-path="url(#clip0_86_61)">
<path d="M39.9948 78.5055C61.2636 78.5055 78.5053 61.2638 78.5053 39.9951C78.5053 18.7263 61.2636 1.48462 39.9948 1.48462C18.7261 1.48462 1.48438 18.7263 1.48438 39.9951C1.48438 61.2638 18.7261 78.5055 39.9948 78.5055Z" fill="white" stroke="white" stroke-width="3" stroke-linecap="round" stroke-linejoin="round"/>
<path d="M16.1225 38.9262H22.4469V60.5419H34.5909V43.6373H45.4087V60.5419H57.5527V38.9262H63.8771C64.4808 38.9262 64.7579 38.1641 64.2828 37.788L57.5527 32.2455V22.4274H51.7133V27.4354L40.0047 17.7855L15.7167 37.788C15.2515 38.174 15.5188 38.9262 16.1225 38.9262Z" fill="black"/>
</g>
<defs>
<clipPath id="clip0_86_61">
<rect width="80" height="80" fill="white"/>
</clipPath>
</defs>
</svg>
