<svg width="80" height="80" viewBox="0 0 80 80" fill="none" xmlns="http://www.w3.org/2000/svg">
<g clip-path="url(#clip0_90_82)">
<path d="M77.5043 48.739C82.3285 28.0246 69.447 7.32149 48.7326 2.49729C28.0182 -2.32691 7.31505 10.5546 2.49085 31.269C-2.33335 51.9834 10.5482 72.6865 31.2626 77.5107C51.977 82.3349 72.6801 69.4534 77.5043 48.739Z" fill="white" stroke="white" stroke-width="3" stroke-linecap="round" stroke-linejoin="round"/>
<path d="M59.5325 25.0204H20.4777C19.3954 25.0204 18.5181 25.8978 18.5181 26.9801V53.0199C18.5181 54.1022 19.3954 54.9796 20.4777 54.9796H59.5325C60.6148 54.9796 61.4922 54.1022 61.4922 53.0199V26.9801C61.4922 25.8978 60.6148 25.0204 59.5325 25.0204Z" fill="white"/>
<path d="M59.5325 25.0204H20.4777C19.3954 25.0204 18.5181 25.8978 18.5181 26.9801V53.0199C18.5181 54.1022 19.3954 54.9796 20.4777 54.9796H59.5325C60.6148 54.9796 61.4922 54.1022 61.4922 53.0199V26.9801C61.4922 25.8978 60.6148 25.0204 59.5325 25.0204Z" stroke="black" stroke-width="5" stroke-linecap="round" stroke-linejoin="round"/>
<path d="M20.4774 54.9796C19.3986 54.9796 19.1511 54.3659 19.933 53.6236L38.5796 35.759C39.3614 35.0167 40.6382 35.0167 41.4201 35.759L60.0666 53.6236C60.8485 54.3659 60.6011 54.9796 59.5223 54.9796H20.4774Z" fill="white"/>
<path d="M20.4774 54.9796C19.3986 54.9796 19.1511 54.3659 19.933 53.6236L38.5796 35.759C39.3614 35.0167 40.6382 35.0167 41.4201 35.759L60.0666 53.6236C60.8485 54.3659 60.6011 54.9796 59.5223 54.9796H20.4774Z" stroke="black" stroke-width="5" stroke-linecap="round" stroke-linejoin="round"/>
<path d="M59.5223 25.0204C60.6011 25.0204 60.8485 25.634 60.0666 26.3763L41.4201 44.241C40.6382 44.9833 39.3614 44.9833 38.5796 44.241L19.933 26.3763C19.1511 25.634 19.3986 25.0204 20.4774 25.0204H59.5223Z" fill="white"/>
<path d="M59.5223 25.0204C60.6011 25.0204 60.8485 25.634 60.0666 26.3763L41.4201 44.241C40.6382 44.9833 39.3614 44.9833 38.5796 44.241L19.933 26.3763C19.1511 25.634 19.3986 25.0204 20.4774 25.0204H59.5223Z" stroke="black" stroke-width="5" stroke-linecap="round" stroke-linejoin="round"/>
</g>
<defs>
<clipPath id="clip0_90_82">
<rect width="80" height="80" fill="white"/>
</clipPath>
</defs>
</svg>
