<svg width="50" height="50" viewBox="0 0 50 50" fill="none" xmlns="http://www.w3.org/2000/svg">
<circle cx="25" cy="25" r="25" fill="white"/>
<path d="M25 10.4167C21.0394 10.4167 20.5428 10.4335 18.9873 10.5045C17.4351 10.5754 16.375 10.8219 15.4473 11.1824C14.4883 11.5551 13.6751 12.0537 12.8643 12.8645C12.0536 13.6752 11.555 14.4885 11.1823 15.4474C10.8217 16.3751 10.5752 17.4352 10.5044 18.9874C10.4334 20.5429 10.4167 21.0395 10.4167 25.0001C10.4167 28.9607 10.4334 29.4573 10.5044 31.0128C10.5752 32.565 10.8217 33.6251 11.1823 34.5527C11.555 35.5117 12.0536 36.325 12.8643 37.1358C13.6751 37.9465 14.4883 38.4452 15.4473 38.8178C16.375 39.1783 17.4351 39.4249 18.9873 39.4957C20.5428 39.5666 21.0394 39.5834 25 39.5834C28.9606 39.5834 29.4572 39.5666 31.0127 39.4957C32.5649 39.4249 33.625 39.1783 34.5527 38.8178C35.5116 38.4452 36.3249 37.9465 37.1357 37.1358C37.9464 36.325 38.4451 35.5117 38.8178 34.5527C39.1782 33.6251 39.4248 32.565 39.4956 31.0128C39.5666 29.4573 39.5834 28.9607 39.5834 25.0001C39.5834 21.0395 39.5666 20.5429 39.4956 18.9874C39.4248 17.4352 39.1782 16.3751 38.8178 15.4474C38.4451 14.4885 37.9464 13.6752 37.1357 12.8645C36.3249 12.0537 35.5116 11.5551 34.5527 11.1824C33.625 10.8219 32.5649 10.5754 31.0127 10.5045C29.4572 10.4335 28.9606 10.4167 25 10.4167ZM25 13.0444C28.8939 13.0444 29.3552 13.0592 30.8929 13.1294C32.3148 13.1943 33.087 13.4319 33.6009 13.6315C34.2816 13.8961 34.7674 14.2122 35.2777 14.7224C35.788 15.2327 36.104 15.7186 36.3686 16.3992C36.5683 16.9131 36.8059 17.6853 36.8707 19.1072C36.9409 20.6449 36.9557 21.1062 36.9557 25.0001C36.9557 28.894 36.9409 29.3552 36.8707 30.893C36.8059 32.3149 36.5683 33.087 36.3686 33.6009C36.104 34.2816 35.788 34.7674 35.2777 35.2777C34.7674 35.7881 34.2816 36.1041 33.6009 36.3686C33.087 36.5683 32.3148 36.8059 30.8929 36.8708C29.3554 36.9409 28.8942 36.9558 25 36.9558C21.1058 36.9558 20.6447 36.9409 19.1071 36.8708C17.6852 36.8059 16.9131 36.5683 16.3992 36.3686C15.7185 36.1041 15.2327 35.7881 14.7223 35.2777C14.212 34.7674 13.896 34.2816 13.6315 33.6009C13.4318 33.087 13.1942 32.3149 13.1293 30.893C13.0591 29.3552 13.0443 28.894 13.0443 25.0001C13.0443 21.1062 13.0591 20.6449 13.1293 19.1072C13.1942 17.6853 13.4318 16.9131 13.6315 16.3992C13.896 15.7186 14.212 15.2327 14.7223 14.7224C15.2327 14.2122 15.7185 13.8961 16.3992 13.6315C16.9131 13.4319 17.6852 13.1943 19.1071 13.1294C20.6449 13.0592 21.1061 13.0444 25 13.0444Z" fill="black"/>
<path d="M24.9997 29.8611C22.315 29.8611 20.1386 27.6847 20.1386 25C20.1386 22.3152 22.315 20.1389 24.9997 20.1389C27.6844 20.1389 29.8608 22.3152 29.8608 25C29.8608 27.6847 27.6844 29.8611 24.9997 29.8611ZM24.9997 17.5112C20.8638 17.5112 17.511 20.864 17.511 25C17.511 29.1359 20.8638 32.4887 24.9997 32.4887C29.1357 32.4887 32.4885 29.1359 32.4885 25C32.4885 20.864 29.1357 17.5112 24.9997 17.5112Z" fill="black"/>
<path d="M34.5346 17.2153C34.5346 18.1818 33.751 18.9653 32.7845 18.9653C31.8181 18.9653 31.0345 18.1818 31.0345 17.2153C31.0345 16.2488 31.8181 15.4653 32.7845 15.4653C33.751 15.4653 34.5346 16.2488 34.5346 17.2153Z" fill="black"/>
</svg>
