<svg width="80" height="80" viewBox="0 0 80 80" fill="none" xmlns="http://www.w3.org/2000/svg">
<g clip-path="url(#clip0_86_55)">
<path d="M39.9948 78.5055C61.2636 78.5055 78.5053 61.2638 78.5053 39.9951C78.5053 18.7263 61.2636 1.48462 39.9948 1.48462C18.7261 1.48462 1.48438 18.7263 1.48438 39.9951C1.48438 61.2638 18.7261 78.5055 39.9948 78.5055Z" fill="white" stroke="white" stroke-width="3" stroke-linecap="round" stroke-linejoin="round"/>
<path d="M39.9258 28.6626C46.2304 28.6626 51.3374 33.7696 51.3374 40.0742" stroke="black" stroke-width="3" stroke-linecap="round" stroke-linejoin="round"/>
<path d="M41.7368 19.2899C52.2082 19.2899 60.71 27.7818 60.71 38.2631" stroke="black" stroke-width="3" stroke-linecap="round" stroke-linejoin="round"/>
<path d="M20.6064 22.6154C14.7472 28.4746 18.241 41.45 28.3956 51.6145C38.5503 61.7691 51.5355 65.253 57.3849 59.4037C59.1565 57.6321 59.9681 53.594 59.9681 53.594C60.0967 52.9308 59.7206 52.1885 59.107 51.951L48.4773 47.7051C47.8735 47.4675 46.9729 47.6655 46.4879 48.1603L43.4098 51.2384C42.8259 51.8223 41.9747 51.9708 41.3017 51.6739C41.2522 51.6442 41.2027 51.6244 41.1434 51.5947C41.1236 51.5848 41.0939 51.565 41.0741 51.5551C38.7284 50.2784 36.2541 48.4177 33.9282 46.0918C31.5925 43.7659 29.7417 41.2817 28.4649 38.9459C28.455 38.9261 28.4451 38.9063 28.4253 38.8866C28.3956 38.8371 28.3659 38.7777 28.3362 38.7282C28.0294 38.0552 28.1779 37.204 28.7618 36.6201L31.8498 33.5321C32.3447 33.0471 32.5426 32.1465 32.3051 31.5427L28.0591 20.913C27.8216 20.3093 27.0793 19.9233 26.4162 20.052C26.4162 20.052 22.388 20.8536 20.6064 22.6352V22.6154Z" fill="black"/>
</g>
<defs>
<clipPath id="clip0_86_55">
<rect width="80" height="80" fill="white"/>
</clipPath>
</defs>
</svg>
