<?xml version="1.0" encoding="UTF-8"?><svg id="Layer_2" xmlns="http://www.w3.org/2000/svg" viewBox="0 0 77.83 77.83"><g id="web_icons"><circle cx="38.91" cy="38.91" r="38.91" style="fill:#fff;"/><path d="M59.78,53.31l-11.08-10.94c3.9-6.6,3-15.21-2.72-20.87-6.82-6.74-17.87-6.74-24.68,0-6.82,6.74-6.82,17.66,0,24.39,5.73,5.66,14.43,6.55,21.12,2.69l11.08,10.94c1.74,1.72,4.55,1.72,6.29,0,1.74-1.71,1.74-4.5,0-6.21ZM41.75,41.71c-4.48,4.43-11.74,4.43-16.23,0-4.48-4.43-4.48-11.6,0-16.03,4.48-4.43,11.75-4.43,16.23,0,4.48,4.43,4.48,11.61,0,16.03Z" style="fill:#131214;"/></g></svg>